<svg version="1.1" id="Layer_1" xmlns="http://www.w3.org/2000/svg" xmlns:xlink="http://www.w3.org/1999/xlink" x="0px" y="0px"
	 width="100%" viewBox="0 0 500 500" enable-background="new 0 0 500 500" xml:space="preserve">
<path fill="#FEFFFE" opacity="1.000000" stroke="none" 
	d="
M272.000000,501.000000 
	C181.333359,501.000000 91.166710,501.000000 1.000048,501.000000 
	C1.000032,334.333405 1.000032,167.666794 1.000016,1.000138 
	C167.666565,1.000092 334.333130,1.000092 500.999756,1.000046 
	C500.999847,167.666519 500.999847,334.333038 500.999939,500.999786 
	C424.833344,501.000000 348.666656,501.000000 272.000000,501.000000 
M203.838089,372.500336 
	C203.835709,367.501678 203.915970,362.501343 203.816788,357.504608 
	C203.360641,334.524750 195.397293,314.582672 179.221909,298.166107 
	C172.677628,291.524292 165.672653,285.336304 158.876297,278.942902 
	C149.970657,270.565308 141.063995,262.188812 131.140518,252.855026 
	C148.006927,254.702988 162.227585,251.723083 174.294540,241.262878 
	C185.975266,231.137466 192.621353,218.218796 196.560181,202.869553 
	C167.502686,201.322250 143.922089,208.361328 130.391800,237.554031 
	C129.391815,211.975952 127.685493,188.111954 130.868134,164.134872 
	C159.736526,176.689102 185.562363,170.953049 198.672470,149.002518 
	C188.405411,142.735931 177.498962,139.063217 165.325836,138.934723 
	C153.091843,138.805573 143.139130,144.555161 133.437241,151.279602 
	C137.565414,132.392532 145.575439,116.336708 158.952988,103.208252 
	C178.096771,117.197922 202.500702,116.160660 213.927200,100.882072 
	C201.604446,90.020866 187.721619,84.876015 170.412430,89.492050 
	C180.148270,73.507568 178.911041,58.430599 171.080322,43.008633 
	C154.285675,54.936707 144.345673,74.879959 155.009506,95.817841 
	C155.539795,96.859016 155.106979,98.948914 154.353638,99.998611 
	C147.432098,109.642906 140.340591,119.165237 133.583420,128.336517 
	C130.442490,117.227669 124.073990,106.729561 112.458427,100.344040 
	C101.085419,94.091858 88.904556,92.068001 75.509460,93.816017 
	C78.552025,105.862045 83.703499,115.912598 92.049911,124.175034 
	C102.885071,134.901169 116.374329,137.857697 131.710846,136.638351 
	C123.337196,161.302109 123.544868,186.329422 124.035461,212.452713 
	C108.427429,186.885696 80.486504,173.582809 59.197399,180.774979 
	C60.597324,191.560013 68.440453,206.249756 77.579674,215.442566 
	C90.655930,228.595474 106.825180,232.077332 124.780731,230.081284 
	C124.780731,235.807404 124.780731,240.967941 124.780731,245.474030 
	C119.181328,241.989319 113.993629,237.448120 107.954254,235.286942 
	C96.805611,231.297379 84.749283,236.600861 78.756760,246.723526 
	C72.744354,256.879730 74.339790,269.230865 82.971184,277.857697 
	C95.818718,290.698456 108.773392,303.431915 121.652763,316.240906 
	C123.062080,317.642517 125.071678,319.089478 125.392548,320.782684 
	C125.860039,323.249573 125.966164,326.919891 124.525002,328.298309 
	C123.047295,329.711670 119.503365,329.248749 116.901489,329.067017 
	C115.817131,328.991302 114.753601,327.597107 113.810539,326.670197 
	C97.885132,311.017700 81.869049,295.455078 66.110680,279.635834 
	C55.976234,269.462250 50.120960,257.022156 49.855694,242.598114 
	C49.442112,220.109375 49.666214,197.609283 49.558586,175.114304 
	C49.526722,168.454880 49.639053,161.765930 49.063663,155.144531 
	C48.148872,144.617508 39.299534,137.402573 28.796022,138.077850 
	C18.544958,138.736908 11.000775,146.826492 10.999750,157.182388 
	C10.996087,194.178543 11.023410,231.174744 10.986745,268.170868 
	C10.970648,284.412689 16.007656,298.834198 26.066231,311.577087 
	C44.845860,335.368378 63.446266,359.302582 82.404732,382.950073 
	C86.413391,387.950195 88.362938,393.076019 88.174652,399.362183 
	C87.971519,406.144073 88.128708,412.936737 88.128708,419.795105 
	C126.816910,419.795105 165.176666,419.795105 203.838730,419.795105 
	C203.838730,404.116333 203.838730,388.808258 203.838089,372.500336 
M88.148758,437.638947 
	C88.350327,442.930054 88.332283,448.241760 88.826401,453.505402 
	C89.189240,457.370483 91.528732,458.762848 95.673454,458.739899 
	C128.636139,458.557373 161.600266,458.638519 194.563950,458.637787 
	C201.269165,458.637634 203.365051,456.947418 203.828934,450.051483 
	C204.203079,444.489502 203.904709,438.882263 203.904709,433.166077 
	C165.002487,433.166077 126.773758,433.166077 88.151833,433.166077 
	C88.151833,434.448120 88.151833,435.561676 88.148758,437.638947 
M451.705048,319.404297 
	C451.705048,313.295654 451.705048,307.187012 451.705048,301.373108 
	C455.771423,299.915680 457.366821,301.610168 458.661987,304.656708 
	C461.649780,311.684906 464.867065,318.619507 468.168427,325.507141 
	C468.814850,326.855835 470.185242,328.707062 471.351532,328.806702 
	C475.865814,329.192322 480.432617,328.963470 486.371338,328.963470 
	C481.410004,318.129395 477.033081,308.571564 472.730621,299.176270 
	C473.245087,298.609650 473.419647,298.300201 473.684509,298.142670 
	C482.868011,292.679321 486.414093,285.168762 484.494171,275.210938 
	C482.631653,265.550659 476.725983,259.975403 465.800232,258.918823 
	C457.710663,258.136536 449.508545,258.594360 441.371765,258.192139 
	C437.181854,257.985016 435.968994,259.500519 436.008881,263.634491 
	C436.198517,283.281281 436.092346,302.930939 436.094513,322.579559 
	C436.095215,329.006470 436.099670,329.048370 442.723297,329.000122 
	C452.418518,328.929535 451.683441,330.384552 451.705048,319.404297 
M339.228302,405.839203 
	C326.673279,405.665161 318.353577,399.112152 316.476196,387.159607 
	C314.915131,377.221100 316.943848,368.034668 325.635773,361.844635 
	C333.125671,356.510681 341.252350,356.709564 349.161926,361.230042 
	C356.235229,365.272491 356.178650,365.371155 361.834106,359.713501 
	C362.422699,359.124664 362.965729,358.478424 363.611511,357.960541 
	C366.935883,355.294861 366.064423,353.176147 363.036316,350.877777 
	C351.955475,342.466949 339.724579,339.794312 326.325500,343.584320 
	C307.719238,348.847107 296.995605,365.837250 299.104431,387.465637 
	C300.580109,402.599792 308.454834,413.724518 322.855042,419.236115 
	C337.739655,424.933136 351.578735,422.497559 363.976807,412.298126 
	C366.343384,410.351196 366.481537,408.686920 364.172607,406.621582 
	C362.190674,404.848724 360.286774,402.960480 358.549622,400.949432 
	C356.512909,398.591553 354.853119,398.736908 352.168762,400.360565 
	C348.417664,402.629486 344.122284,403.998535 339.228302,405.839203 
M289.356873,409.105164 
	C281.113068,387.744934 272.897247,366.373749 264.566803,345.047363 
	C263.968475,343.515625 262.532898,342.310913 261.486603,340.954132 
	C260.284973,342.319672 258.582886,343.488434 257.956909,345.080353 
	C248.910950,368.085449 240.005905,391.145935 231.075653,414.196472 
	C228.455322,420.960052 228.502060,420.761719 235.756363,421.073792 
	C242.764542,421.375275 249.591568,421.977753 249.651337,412.003693 
	C256.643097,412.003693 262.968109,411.819336 269.267090,412.142120 
	C270.718994,412.216553 272.954651,413.778870 273.329651,415.086639 
	C274.715454,419.919037 277.459137,421.786499 282.409576,421.067078 
	C284.853973,420.711853 287.392334,421.002228 289.888184,421.002441 
	C292.551880,421.002625 293.592743,419.880341 292.554352,417.236237 
	C291.583771,414.764832 290.662567,412.274048 289.356873,409.105164 
M393.553772,329.993866 
	C412.147858,329.401520 420.996216,320.383514 420.998993,302.019562 
	C421.000641,291.020935 420.999298,280.022339 420.999298,269.023712 
	C420.999298,258.879608 420.992249,259.118256 411.066772,258.826752 
	C406.555573,258.694244 405.415344,260.185059 405.498962,264.505951 
	C405.753662,277.666016 405.644501,290.834503 405.564240,303.999023 
	C405.527130,310.086487 403.373657,313.123322 398.444794,314.663544 
	C389.617859,317.421844 382.180878,312.050354 382.136383,302.798676 
	C382.083496,291.800293 382.123383,280.801514 382.123260,269.802887 
	C382.123138,258.556702 382.125214,258.688904 371.002167,258.854828 
	C367.629822,258.905151 366.765503,260.110565 366.797119,263.271576 
	C366.928741,276.435272 366.845459,289.601044 366.854034,302.766052 
	C366.864960,319.530487 375.674042,328.810211 393.553772,329.993866 
M438.201508,114.989746 
	C434.881775,114.867561 431.540741,114.938202 428.247711,114.574257 
	C424.151093,114.121498 421.466797,115.683678 419.019714,118.976204 
	C414.452728,125.121056 409.432617,130.929489 404.591003,136.869675 
	C403.229126,138.540558 401.832062,140.182724 399.634430,142.817017 
	C399.634430,133.803146 399.783569,126.306915 399.503387,118.826775 
	C399.449982,117.401344 397.843323,114.995377 396.707123,114.839813 
	C392.982025,114.329758 389.143463,114.648209 385.065186,114.648209 
	C384.949310,116.721550 384.797089,118.190941 384.795776,119.660454 
	C384.779205,137.826157 384.763000,155.991898 384.793762,174.157562 
	C384.808777,183.008118 383.870850,181.953766 392.421478,181.998749 
	C399.635468,182.036697 399.635712,182.006104 399.637085,174.650681 
	C399.637512,172.317474 399.304626,169.923080 399.719727,167.666214 
	C400.262756,164.713623 401.396698,161.869690 402.627686,157.824738 
	C408.369568,164.904343 412.982666,170.582306 417.584747,176.269180 
	C422.435333,182.263138 431.601135,184.214050 439.807709,180.481506 
	C430.861542,169.836884 422.042206,159.343170 413.201691,148.824280 
	C421.164276,139.001068 428.851746,129.584686 436.435028,120.085175 
	C437.500183,118.750847 438.055756,117.009720 438.201508,114.989746 
M260.090149,116.090546 
	C250.313797,115.617683 240.539062,115.098770 230.758255,114.751221 
	C229.888275,114.720314 228.179764,115.855431 228.212372,116.362007 
	C228.504257,120.897308 228.429230,125.630302 229.803391,129.870483 
	C231.054306,133.730377 233.975708,137.048920 236.334427,140.888763 
	C227.980682,141.463303 227.980606,141.463303 227.980515,149.114838 
	C227.980423,157.108826 227.980453,165.102798 227.980499,173.096786 
	C227.980560,182.032043 227.990250,181.773636 237.022522,182.111618 
	C241.687973,182.286194 243.158813,180.847473 242.908707,176.208969 
	C242.537506,169.324387 242.812607,162.404953 242.812607,155.598297 
	C265.861359,153.764145 272.583313,149.917923 274.405701,137.928238 
	C275.935242,127.865463 271.289825,120.467056 260.090149,116.090546 
M368.377380,119.077988 
	C367.364441,118.507347 366.374359,117.890793 365.335083,117.373001 
	C350.898438,110.180244 332.755615,113.847450 323.238312,125.868935 
	C313.104248,138.669449 313.355988,158.800766 323.804871,171.179276 
	C334.136963,183.419434 351.907745,186.563278 366.418610,178.718094 
	C375.979919,173.548843 376.078461,172.281876 368.403259,164.831970 
	C365.908356,162.410294 364.195648,162.602661 361.648895,164.685837 
	C357.345215,168.206116 352.257690,169.590118 346.691925,168.556015 
	C338.540375,167.041519 332.811279,161.243958 331.195129,152.984695 
	C329.463745,144.136566 332.771790,135.046417 339.253082,130.842255 
	C346.143372,126.372795 354.592957,126.939201 362.100769,132.093292 
	C363.329712,132.936966 366.013397,133.635040 366.665894,133.001328 
	C369.411133,130.335022 371.669556,127.159462 373.978485,124.074654 
	C374.099548,123.912903 373.124023,122.783981 372.523804,122.260284 
	C371.398041,121.278030 370.173218,120.409309 368.377380,119.077988 
M304.285400,299.126129 
	C305.040009,300.013611 305.750702,300.943207 306.555939,301.782104 
	C315.027039,310.607544 328.633148,312.694397 339.613708,306.871216 
	C349.909210,301.411285 355.804871,289.544464 353.417023,278.908722 
	C350.782837,267.175751 343.343658,260.024689 331.834320,257.258484 
	C321.680084,254.817932 309.916687,259.652313 303.884674,268.647797 
	C297.269409,278.513123 297.353882,288.564026 304.285400,299.126129 
M264.299866,329.007172 
	C268.038849,329.559570 269.218323,327.951050 269.107178,324.232361 
	C268.863495,316.078857 268.857819,307.907074 269.137238,299.755829 
	C269.221619,297.294495 270.038696,294.517822 271.418060,292.499146 
	C278.081757,282.747040 285.074005,273.220032 291.889740,263.570770 
	C292.951385,262.067749 293.703186,260.345825 295.249237,257.546478 
	C290.017914,257.546478 286.069122,257.765167 282.156616,257.482208 
	C278.567688,257.222626 276.319489,258.575104 274.347015,261.521759 
	C270.291840,267.579712 265.900848,273.412933 261.304413,279.817474 
	C257.132904,274.088898 253.213181,268.752594 249.343826,263.380005 
	C244.992630,257.338409 235.220078,255.275589 227.539856,259.282288 
	C231.595154,264.995728 235.072601,271.135559 239.722122,276.199127 
	C250.976135,288.455414 255.210403,302.340240 253.587051,318.955933 
	C252.438675,330.709900 251.998672,328.815765 264.299866,329.007172 
M383.501282,358.830780 
	C384.950714,358.896545 386.400146,358.962280 388.247864,359.046082 
	C388.247864,375.960266 388.247864,392.566437 388.247864,409.172638 
	C388.247864,421.136200 388.249176,420.988007 400.010681,421.092102 
	C403.871277,421.126282 405.247009,420.144745 405.185486,416.056976 
	C404.955017,400.744995 405.093353,385.427521 405.093414,370.112091 
	C405.093414,366.492462 405.093414,362.872833 405.093414,358.826874 
	C409.373352,358.826874 413.202026,359.132019 416.934509,358.666046 
	C418.292450,358.496521 420.176544,356.660339 420.489899,355.282013 
	C421.065704,352.749268 421.048431,349.907501 420.500153,347.362152 
	C420.196960,345.954437 418.334991,343.846588 417.143005,343.824585 
	C403.497009,343.572723 389.844177,343.610199 376.195160,343.756409 
	C375.097595,343.768127 373.308350,344.954834 373.034637,345.930511 
	C370.378723,355.397522 372.986542,358.830750 383.501282,358.830780 
M282.885437,127.798820 
	C284.164917,127.798820 285.444427,127.798820 286.714630,127.798820 
	C286.714630,141.792450 286.714630,155.319931 286.714630,168.825928 
	C279.627838,169.067612 279.627869,169.067612 279.634125,175.720825 
	C279.634735,176.386612 279.697510,177.059387 279.624420,177.717026 
	C279.270233,180.902344 280.490540,182.204697 283.853638,182.066879 
	C289.503357,181.835373 295.169495,182.003754 300.828705,182.003769 
	C310.135284,182.003784 310.537170,181.642883 309.272430,172.108948 
	C309.116516,170.933624 307.334290,169.703430 306.030487,169.037003 
	C304.995728,168.508057 303.539886,168.802933 302.192444,168.727631 
	C302.192444,154.945709 302.192444,141.523499 302.192444,128.123123 
	C309.051758,127.479866 309.051697,127.479866 309.037933,120.471771 
	C309.036957,119.972427 308.978455,119.464897 309.046570,118.975067 
	C309.495239,115.749619 308.180450,114.505005 304.878815,114.603920 
	C298.725769,114.788269 292.558807,114.522942 286.407135,114.728973 
	C284.299438,114.799561 280.404755,115.760971 280.415558,116.246605 
	C280.500916,120.080093 278.037415,124.429016 282.885437,127.798820 
M266.011688,234.250793 
	C266.716339,228.382919 267.770874,222.530991 268.039001,216.643234 
	C268.391663,208.899338 268.125641,201.127243 268.125641,193.248001 
	C266.212402,193.130005 265.073090,193.012909 263.932373,192.997086 
	C257.298615,192.904968 257.294464,192.913010 257.290802,199.338242 
	C257.286133,207.500992 257.326630,215.663971 257.275757,223.826416 
	C257.238708,229.770813 254.813446,232.289261 249.346085,232.255417 
	C244.268158,232.223999 241.195740,229.091827 241.069946,223.724838 
	C241.003601,220.894409 241.057312,218.061157 241.057251,215.229187 
	C241.057098,207.965424 241.057205,200.701645 241.057205,192.989746 
	C238.186951,192.989746 236.046616,193.118607 233.928177,192.958206 
	C231.069916,192.741791 230.125488,193.974976 230.156235,196.744644 
	C230.263458,206.405441 230.089722,216.070160 230.263107,225.729095 
	C230.371414,231.762527 232.901947,236.650513 238.246445,239.842117 
	C247.230133,245.206924 258.989502,243.098511 266.011688,234.250793 
M279.234283,241.074783 
	C282.527466,241.512711 285.820648,241.950623 289.916199,242.495255 
	C289.916199,235.340210 289.916199,229.152512 289.916199,223.704956 
	C295.268585,222.724121 299.966980,222.381989 304.298676,220.939056 
	C309.812958,219.102188 312.729492,214.775299 313.022369,208.816055 
	C313.327820,202.600235 311.240570,197.567963 305.446045,194.876038 
	C296.923920,190.916992 287.999207,193.269928 279.045166,192.756729 
	C279.045166,209.229721 279.045166,224.691650 279.234283,241.074783 
M345.226532,314.109589 
	C334.086792,314.109467 322.946442,314.037994 311.807434,314.128906 
	C300.267914,314.223083 302.126801,312.431366 301.711639,324.144318 
	C301.563782,328.315308 303.138763,329.153046 306.919647,329.083252 
	C318.388031,328.871521 329.863251,329.070679 341.334961,328.988251 
	C352.293304,328.909515 350.676453,330.637573 350.972961,319.030579 
	C351.066071,315.386749 349.910370,313.654480 345.226532,314.109589 
M109.940437,175.701202 
	C113.206154,176.373123 112.952209,174.298386 112.038300,172.558273 
	C108.285660,165.413071 104.802567,158.054794 100.292427,151.404160 
	C97.308937,147.004730 92.519234,144.154251 86.575645,144.901413 
	C82.315712,145.436890 78.966560,149.073090 78.847061,153.298721 
	C78.713737,158.013504 81.482773,160.294601 85.733208,160.918427 
	C95.657669,162.374985 103.197311,167.661896 109.940437,175.701202 
M176.452606,178.167328 
	C169.941544,181.687073 163.390549,185.136993 156.965973,188.808044 
	C156.084747,189.311569 155.182175,191.136841 155.459839,191.951050 
	C155.777328,192.882004 157.523361,194.084671 158.441132,193.930878 
	C165.213272,192.796036 172.063889,191.771301 178.588959,189.743713 
	C180.488434,189.153488 182.511108,185.379395 182.426437,183.142349 
	C182.361328,181.421585 179.081421,179.822479 176.452606,178.167328 
M177.002792,133.440781 
	C183.693100,136.911545 186.287811,136.658951 188.272095,132.343704 
	C190.154114,128.250839 187.920563,123.732315 183.250946,122.185799 
	C176.603867,119.984383 162.409744,124.211761 157.844620,129.414734 
	C163.819366,130.591736 170.071091,131.823303 177.002792,133.440781 
M131.756973,79.556747 
	C132.893005,82.624405 133.729065,85.852661 135.258606,88.709656 
	C136.515091,91.056610 139.131973,90.911247 139.604782,88.347656 
	C140.763199,82.066711 141.631088,75.650520 141.624222,69.289818 
	C141.622314,67.551735 137.947021,64.298576 136.252075,64.480804 
	C134.303650,64.690277 131.797745,67.686462 131.148163,69.937943 
	C130.378082,72.607071 131.329575,75.772888 131.756973,79.556747 
M128.675430,84.826912 
	C126.158981,82.704659 123.887482,80.093750 121.026169,78.659500 
	C119.521194,77.905113 116.984924,79.208145 114.914337,79.582146 
	C115.440552,81.607368 115.314568,84.577545 116.617775,85.477028 
	C120.233749,87.972786 124.374290,89.770157 128.446213,91.521011 
	C130.975357,92.608498 131.852661,91.098679 131.103912,88.778336 
	C130.711670,87.562820 129.784882,86.519806 128.675430,84.826912 
M145.887421,188.027618 
	C147.811951,188.075165 150.020752,188.701981 151.552917,187.950043 
	C152.452362,187.508621 152.890411,184.645660 152.390686,183.295990 
	C151.979294,182.184860 149.795181,180.934662 148.547394,181.076050 
	C144.625137,181.520416 143.917099,184.116394 145.887421,188.027618 
M138.176193,194.976074 
	C137.658951,197.056549 136.753540,199.158249 136.865479,201.204285 
	C136.898254,201.803299 140.285110,203.098923 141.309250,202.546127 
	C142.662064,201.815903 144.322403,198.888763 143.857742,198.135895 
	C142.900223,196.584457 140.621552,195.848389 138.176193,194.976074 
M135.950409,99.928093 
	C137.295258,99.017265 138.856476,98.285126 139.848953,97.083305 
	C140.135040,96.736885 139.025558,94.538559 138.116058,94.098656 
	C137.185287,93.648453 135.714890,94.313950 134.480698,94.491074 
	C134.740402,96.224304 135.000107,97.957542 135.950409,99.928093 
z"/>
<path fill="#028138" opacity="1.000000" stroke="none" 
	d="
M203.838409,373.000244 
	C203.838730,388.808258 203.838730,404.116333 203.838730,419.795105 
	C165.176666,419.795105 126.816910,419.795105 88.128708,419.795105 
	C88.128708,412.936737 87.971519,406.144073 88.174652,399.362183 
	C88.362938,393.076019 86.413391,387.950195 82.404732,382.950073 
	C63.446266,359.302582 44.845860,335.368378 26.066231,311.577087 
	C16.007656,298.834198 10.970648,284.412689 10.986745,268.170868 
	C11.023410,231.174744 10.996087,194.178543 10.999750,157.182388 
	C11.000775,146.826492 18.544958,138.736908 28.796022,138.077850 
	C39.299534,137.402573 48.148872,144.617508 49.063663,155.144531 
	C49.639053,161.765930 49.526722,168.454880 49.558586,175.114304 
	C49.666214,197.609283 49.442112,220.109375 49.855694,242.598114 
	C50.120960,257.022156 55.976234,269.462250 66.110680,279.635834 
	C81.869049,295.455078 97.885132,311.017700 113.810539,326.670197 
	C114.753601,327.597107 115.817131,328.991302 116.901489,329.067017 
	C119.503365,329.248749 123.047295,329.711670 124.525002,328.298309 
	C125.966164,326.919891 125.860039,323.249573 125.392548,320.782684 
	C125.071678,319.089478 123.062080,317.642517 121.652763,316.240906 
	C108.773392,303.431915 95.818718,290.698456 82.971184,277.857697 
	C74.339790,269.230865 72.744354,256.879730 78.756760,246.723526 
	C84.749283,236.600861 96.805611,231.297379 107.954254,235.286942 
	C113.993629,237.448120 119.181328,241.989319 124.780731,245.474030 
	C124.780731,240.967941 124.780731,235.807404 124.780731,230.081284 
	C106.825180,232.077332 90.655930,228.595474 77.579674,215.442566 
	C68.440453,206.249756 60.597324,191.560013 59.197399,180.774979 
	C80.486504,173.582809 108.427429,186.885696 124.035461,212.452713 
	C123.544868,186.329422 123.337196,161.302109 131.710846,136.638351 
	C116.374329,137.857697 102.885071,134.901169 92.049911,124.175034 
	C83.703499,115.912598 78.552025,105.862045 75.509460,93.816017 
	C88.904556,92.068001 101.085419,94.091858 112.458427,100.344040 
	C124.073990,106.729561 130.442490,117.227669 133.583420,128.336517 
	C140.340591,119.165237 147.432098,109.642906 154.353638,99.998611 
	C155.106979,98.948914 155.539795,96.859016 155.009506,95.817841 
	C144.345673,74.879959 154.285675,54.936707 171.080322,43.008633 
	C178.911041,58.430599 180.148270,73.507568 170.412430,89.492050 
	C187.721619,84.876015 201.604446,90.020866 213.927200,100.882072 
	C202.500702,116.160660 178.096771,117.197922 158.952988,103.208252 
	C145.575439,116.336708 137.565414,132.392532 133.437241,151.279602 
	C143.139130,144.555161 153.091843,138.805573 165.325836,138.934723 
	C177.498962,139.063217 188.405411,142.735931 198.672470,149.002518 
	C185.562363,170.953049 159.736526,176.689102 130.868134,164.134872 
	C127.685493,188.111954 129.391815,211.975952 130.391800,237.554031 
	C143.922089,208.361328 167.502686,201.322250 196.560181,202.869553 
	C192.621353,218.218796 185.975266,231.137466 174.294540,241.262878 
	C162.227585,251.723083 148.006927,254.702988 131.140518,252.855026 
	C141.063995,262.188812 149.970657,270.565308 158.876297,278.942902 
	C165.672653,285.336304 172.677628,291.524292 179.221909,298.166107 
	C195.397293,314.582672 203.360641,334.524750 203.816788,357.504608 
	C203.915970,362.501343 203.835709,367.501678 203.838409,373.000244 
z"/>
<path fill="#05823B" opacity="1.000000" stroke="none" 
	d="
M88.150299,437.157104 
	C88.151833,435.561676 88.151833,434.448120 88.151833,433.166077 
	C126.773758,433.166077 165.002487,433.166077 203.904709,433.166077 
	C203.904709,438.882263 204.203079,444.489502 203.828934,450.051483 
	C203.365051,456.947418 201.269165,458.637634 194.563950,458.637787 
	C161.600266,458.638519 128.636139,458.557373 95.673454,458.739899 
	C91.528732,458.762848 89.189240,457.370483 88.826401,453.505402 
	C88.332283,448.241760 88.350327,442.930054 88.150299,437.157104 
z"/>
<path fill="#06833C" opacity="1.000000" stroke="none" 
	d="
M451.705017,319.886475 
	C451.683441,330.384552 452.418518,328.929535 442.723297,329.000122 
	C436.099670,329.048370 436.095215,329.006470 436.094513,322.579559 
	C436.092346,302.930939 436.198517,283.281281 436.008881,263.634491 
	C435.968994,259.500519 437.181854,257.985016 441.371765,258.192139 
	C449.508545,258.594360 457.710663,258.136536 465.800232,258.918823 
	C476.725983,259.975403 482.631653,265.550659 484.494171,275.210938 
	C486.414093,285.168762 482.868011,292.679321 473.684509,298.142670 
	C473.419647,298.300201 473.245087,298.609650 472.730621,299.176270 
	C477.033081,308.571564 481.410004,318.129395 486.371338,328.963470 
	C480.432617,328.963470 475.865814,329.192322 471.351532,328.806702 
	C470.185242,328.707062 468.814850,326.855835 468.168427,325.507141 
	C464.867065,318.619507 461.649780,311.684906 458.661987,304.656708 
	C457.366821,301.610168 455.771423,299.915680 451.705048,301.373108 
	C451.705048,307.187012 451.705048,313.295654 451.705017,319.886475 
M469.028717,277.979889 
	C465.802368,272.716064 461.225708,271.517914 451.979218,273.518768 
	C451.979218,277.915924 451.979218,282.313110 451.979218,287.036011 
	C455.377625,287.036011 458.506897,287.178986 461.618347,287.004639 
	C467.153687,286.694489 468.971069,284.621552 469.028717,277.979889 
z"/>
<path fill="#04823A" opacity="1.000000" stroke="none" 
	d="
M339.644043,405.795898 
	C344.122284,403.998535 348.417664,402.629486 352.168762,400.360565 
	C354.853119,398.736908 356.512909,398.591553 358.549622,400.949432 
	C360.286774,402.960480 362.190674,404.848724 364.172607,406.621582 
	C366.481537,408.686920 366.343384,410.351196 363.976807,412.298126 
	C351.578735,422.497559 337.739655,424.933136 322.855042,419.236115 
	C308.454834,413.724518 300.580109,402.599792 299.104431,387.465637 
	C296.995605,365.837250 307.719238,348.847107 326.325500,343.584320 
	C339.724579,339.794312 351.955475,342.466949 363.036316,350.877777 
	C366.064423,353.176147 366.935883,355.294861 363.611511,357.960541 
	C362.965729,358.478424 362.422699,359.124664 361.834106,359.713501 
	C356.178650,365.371155 356.235229,365.272491 349.161926,361.230042 
	C341.252350,356.709564 333.125671,356.510681 325.635773,361.844635 
	C316.943848,368.034668 314.915131,377.221100 316.476196,387.159607 
	C318.353577,399.112152 326.673279,405.665161 339.644043,405.795898 
z"/>
<path fill="#04823A" opacity="1.000000" stroke="none" 
	d="
M289.538239,409.448486 
	C290.662567,412.274048 291.583771,414.764832 292.554352,417.236237 
	C293.592743,419.880341 292.551880,421.002625 289.888184,421.002441 
	C287.392334,421.002228 284.853973,420.711853 282.409576,421.067078 
	C277.459137,421.786499 274.715454,419.919037 273.329651,415.086639 
	C272.954651,413.778870 270.718994,412.216553 269.267090,412.142120 
	C262.968109,411.819336 256.643097,412.003693 249.651337,412.003693 
	C249.591568,421.977753 242.764542,421.375275 235.756363,421.073792 
	C228.502060,420.761719 228.455322,420.960052 231.075653,414.196472 
	C240.005905,391.145935 248.910950,368.085449 257.956909,345.080353 
	C258.582886,343.488434 260.284973,342.319672 261.486603,340.954132 
	C262.532898,342.310913 263.968475,343.515625 264.566803,345.047363 
	C272.897247,366.373749 281.113068,387.744934 289.538239,409.448486 
M263.454224,384.997437 
	C262.875549,382.996613 262.296875,380.995789 261.337494,377.678589 
	C258.904266,385.235931 256.876953,391.532684 254.790543,398.012878 
	C259.257324,398.012878 263.227264,398.012878 267.548859,398.012878 
	C266.179230,393.586700 264.964508,389.661072 263.454224,384.997437 
z"/>
<path fill="#028138" opacity="1.000000" stroke="none" 
	d="
M393.102783,329.977295 
	C375.674042,328.810211 366.864960,319.530487 366.854034,302.766052 
	C366.845459,289.601044 366.928741,276.435272 366.797119,263.271576 
	C366.765503,260.110565 367.629822,258.905151 371.002167,258.854828 
	C382.125214,258.688904 382.123138,258.556702 382.123260,269.802887 
	C382.123383,280.801514 382.083496,291.800293 382.136383,302.798676 
	C382.180878,312.050354 389.617859,317.421844 398.444794,314.663544 
	C403.373657,313.123322 405.527130,310.086487 405.564240,303.999023 
	C405.644501,290.834503 405.753662,277.666016 405.498962,264.505951 
	C405.415344,260.185059 406.555573,258.694244 411.066772,258.826752 
	C420.992249,259.118256 420.999298,258.879608 420.999298,269.023712 
	C420.999298,280.022339 421.000641,291.020935 420.998993,302.019562 
	C420.996216,320.383514 412.147858,329.401520 393.102783,329.977295 
z"/>
<path fill="#04823A" opacity="1.000000" stroke="none" 
	d="
M438.524353,115.223328 
	C438.055756,117.009720 437.500183,118.750847 436.435028,120.085175 
	C428.851746,129.584686 421.164276,139.001068 413.201691,148.824280 
	C422.042206,159.343170 430.861542,169.836884 439.807709,180.481506 
	C431.601135,184.214050 422.435333,182.263138 417.584747,176.269180 
	C412.982666,170.582306 408.369568,164.904343 402.627686,157.824738 
	C401.396698,161.869690 400.262756,164.713623 399.719727,167.666214 
	C399.304626,169.923080 399.637512,172.317474 399.637085,174.650681 
	C399.635712,182.006104 399.635468,182.036697 392.421478,181.998749 
	C383.870850,181.953766 384.808777,183.008118 384.793762,174.157562 
	C384.763000,155.991898 384.779205,137.826157 384.795776,119.660454 
	C384.797089,118.190941 384.949310,116.721550 385.065186,114.648209 
	C389.143463,114.648209 392.982025,114.329758 396.707123,114.839813 
	C397.843323,114.995377 399.449982,117.401344 399.503387,118.826775 
	C399.783569,126.306915 399.634430,133.803146 399.634430,142.817017 
	C401.832062,140.182724 403.229126,138.540558 404.591003,136.869675 
	C409.432617,130.929489 414.452728,125.121056 419.019714,118.976204 
	C421.466797,115.683678 424.151093,114.121498 428.247711,114.574257 
	C431.540741,114.938202 434.881775,114.867561 438.524353,115.223328 
z"/>
<path fill="#04823A" opacity="1.000000" stroke="none" 
	d="
M260.473633,116.220428 
	C271.289825,120.467056 275.935242,127.865463 274.405701,137.928238 
	C272.583313,149.917923 265.861359,153.764145 242.812607,155.598297 
	C242.812607,162.404953 242.537506,169.324387 242.908707,176.208969 
	C243.158813,180.847473 241.687973,182.286194 237.022522,182.111618 
	C227.990250,181.773636 227.980560,182.032043 227.980499,173.096786 
	C227.980453,165.102798 227.980423,157.108826 227.980515,149.114838 
	C227.980606,141.463303 227.980682,141.463303 236.334427,140.888763 
	C233.975708,137.048920 231.054306,133.730377 229.803391,129.870483 
	C228.429230,125.630302 228.504257,120.897308 228.212372,116.362007 
	C228.179764,115.855431 229.888275,114.720314 230.758255,114.751221 
	C240.539062,115.098770 250.313797,115.617683 260.473633,116.220428 
M251.347809,128.763748 
	C249.580338,128.763748 247.812881,128.763748 245.065079,128.763748 
	C247.723343,133.023102 249.770187,136.573059 252.150558,139.883209 
	C252.613144,140.526505 254.935684,140.785477 255.435379,140.275757 
	C257.150574,138.526093 259.606842,136.378952 259.646423,134.341873 
	C259.731873,129.944000 255.991989,128.970047 251.347809,128.763748 
z"/>
<path fill="#05823B" opacity="1.000000" stroke="none" 
	d="
M368.683472,119.285675 
	C370.173218,120.409309 371.398041,121.278030 372.523804,122.260284 
	C373.124023,122.783981 374.099548,123.912903 373.978485,124.074654 
	C371.669556,127.159462 369.411133,130.335022 366.665894,133.001328 
	C366.013397,133.635040 363.329712,132.936966 362.100769,132.093292 
	C354.592957,126.939201 346.143372,126.372795 339.253082,130.842255 
	C332.771790,135.046417 329.463745,144.136566 331.195129,152.984695 
	C332.811279,161.243958 338.540375,167.041519 346.691925,168.556015 
	C352.257690,169.590118 357.345215,168.206116 361.648895,164.685837 
	C364.195648,162.602661 365.908356,162.410294 368.403259,164.831970 
	C376.078461,172.281876 375.979919,173.548843 366.418610,178.718094 
	C351.907745,186.563278 334.136963,183.419434 323.804871,171.179276 
	C313.355988,158.800766 313.104248,138.669449 323.238312,125.868935 
	C332.755615,113.847450 350.898438,110.180244 365.335083,117.373001 
	C366.374359,117.890793 367.364441,118.507347 368.683472,119.285675 
z"/>
<path fill="#04823A" opacity="1.000000" stroke="none" 
	d="
M304.072937,298.828247 
	C297.353882,288.564026 297.269409,278.513123 303.884674,268.647797 
	C309.916687,259.652313 321.680084,254.817932 331.834320,257.258484 
	C343.343658,260.024689 350.782837,267.175751 353.417023,278.908722 
	C355.804871,289.544464 349.909210,301.411285 339.613708,306.871216 
	C328.633148,312.694397 315.027039,310.607544 306.555939,301.782104 
	C305.750702,300.943207 305.040009,300.013611 304.072937,298.828247 
M315.133331,286.796661 
	C315.523285,287.715271 315.809814,288.696228 316.320038,289.542328 
	C319.510406,294.833282 325.991364,296.809204 331.542084,294.234039 
	C337.032745,291.686707 339.598236,285.357391 337.524323,279.475159 
	C335.483917,273.687927 329.536072,270.528320 323.479889,272.014435 
	C317.678680,273.437988 314.701508,278.343567 315.133331,286.796661 
z"/>
<path fill="#05823B" opacity="1.000000" stroke="none" 
	d="
M263.833435,329.007202 
	C251.998672,328.815765 252.438675,330.709900 253.587051,318.955933 
	C255.210403,302.340240 250.976135,288.455414 239.722122,276.199127 
	C235.072601,271.135559 231.595154,264.995728 227.539856,259.282288 
	C235.220078,255.275589 244.992630,257.338409 249.343826,263.380005 
	C253.213181,268.752594 257.132904,274.088898 261.304413,279.817474 
	C265.900848,273.412933 270.291840,267.579712 274.347015,261.521759 
	C276.319489,258.575104 278.567688,257.222626 282.156616,257.482208 
	C286.069122,257.765167 290.017914,257.546478 295.249237,257.546478 
	C293.703186,260.345825 292.951385,262.067749 291.889740,263.570770 
	C285.074005,273.220032 278.081757,282.747040 271.418060,292.499146 
	C270.038696,294.517822 269.221619,297.294495 269.137238,299.755829 
	C268.857819,307.907074 268.863495,316.078857 269.107178,324.232361 
	C269.218323,327.951050 268.038849,329.559570 263.833435,329.007202 
z"/>
<path fill="#05823B" opacity="1.000000" stroke="none" 
	d="
M383.015686,358.830750 
	C372.986542,358.830750 370.378723,355.397522 373.034637,345.930511 
	C373.308350,344.954834 375.097595,343.768127 376.195160,343.756409 
	C389.844177,343.610199 403.497009,343.572723 417.143005,343.824585 
	C418.334991,343.846588 420.196960,345.954437 420.500153,347.362152 
	C421.048431,349.907501 421.065704,352.749268 420.489899,355.282013 
	C420.176544,356.660339 418.292450,358.496521 416.934509,358.666046 
	C413.202026,359.132019 409.373352,358.826874 405.093414,358.826874 
	C405.093414,362.872833 405.093414,366.492462 405.093414,370.112091 
	C405.093353,385.427521 404.955017,400.744995 405.185486,416.056976 
	C405.247009,420.144745 403.871277,421.126282 400.010681,421.092102 
	C388.249176,420.988007 388.247864,421.136200 388.247864,409.172638 
	C388.247864,392.566437 388.247864,375.960266 388.247864,359.046082 
	C386.400146,358.962280 384.950714,358.896545 383.015686,358.830750 
z"/>
<path fill="#038139" opacity="1.000000" stroke="none" 
	d="
M282.431519,127.755585 
	C278.037415,124.429016 280.500916,120.080093 280.415558,116.246605 
	C280.404755,115.760971 284.299438,114.799561 286.407135,114.728973 
	C292.558807,114.522942 298.725769,114.788269 304.878815,114.603920 
	C308.180450,114.505005 309.495239,115.749619 309.046570,118.975067 
	C308.978455,119.464897 309.036957,119.972427 309.037933,120.471771 
	C309.051697,127.479866 309.051758,127.479866 302.192444,128.123123 
	C302.192444,141.523499 302.192444,154.945709 302.192444,168.727631 
	C303.539886,168.802933 304.995728,168.508057 306.030487,169.037003 
	C307.334290,169.703430 309.116516,170.933624 309.272430,172.108948 
	C310.537170,181.642883 310.135284,182.003784 300.828705,182.003769 
	C295.169495,182.003754 289.503357,181.835373 283.853638,182.066879 
	C280.490540,182.204697 279.270233,180.902344 279.624420,177.717026 
	C279.697510,177.059387 279.634735,176.386612 279.634125,175.720825 
	C279.627869,169.067612 279.627838,169.067612 286.714630,168.825928 
	C286.714630,155.319931 286.714630,141.792450 286.714630,127.798820 
	C285.444427,127.798820 284.164917,127.798820 282.431519,127.755585 
z"/>
<path fill="#08843D" opacity="1.000000" stroke="none" 
	d="
M265.827545,234.584747 
	C258.989502,243.098511 247.230133,245.206924 238.246445,239.842117 
	C232.901947,236.650513 230.371414,231.762527 230.263107,225.729095 
	C230.089722,216.070160 230.263458,206.405441 230.156235,196.744644 
	C230.125488,193.974976 231.069916,192.741791 233.928177,192.958206 
	C236.046616,193.118607 238.186951,192.989746 241.057205,192.989746 
	C241.057205,200.701645 241.057098,207.965424 241.057251,215.229187 
	C241.057312,218.061157 241.003601,220.894409 241.069946,223.724838 
	C241.195740,229.091827 244.268158,232.223999 249.346085,232.255417 
	C254.813446,232.289261 257.238708,229.770813 257.275757,223.826416 
	C257.326630,215.663971 257.286133,207.500992 257.290802,199.338242 
	C257.294464,192.913010 257.298615,192.904968 263.932373,192.997086 
	C265.073090,193.012909 266.212402,193.130005 268.125641,193.248001 
	C268.125641,201.127243 268.391663,208.899338 268.039001,216.643234 
	C267.770874,222.530991 266.716339,228.382919 265.827545,234.584747 
z"/>
<path fill="#05833B" opacity="1.000000" stroke="none" 
	d="
M279.139709,240.614182 
	C279.045166,224.691650 279.045166,209.229721 279.045166,192.756729 
	C287.999207,193.269928 296.923920,190.916992 305.446045,194.876038 
	C311.240570,197.567963 313.327820,202.600235 313.022369,208.816055 
	C312.729492,214.775299 309.812958,219.102188 304.298676,220.939056 
	C299.966980,222.381989 295.268585,222.724121 289.916199,223.704956 
	C289.916199,229.152512 289.916199,235.340210 289.916199,242.495255 
	C285.820648,241.950623 282.527466,241.512711 279.139709,240.614182 
M291.712555,212.566635 
	C293.680023,212.484589 295.938507,212.978394 297.538696,212.169647 
	C299.393860,211.231995 300.670715,209.150101 302.198578,207.564896 
	C300.558228,206.046478 299.150970,203.880325 297.214935,203.183762 
	C295.090363,202.419403 292.478424,203.009674 289.373779,203.009674 
	C289.924316,206.567703 290.380280,209.514618 291.712555,212.566635 
z"/>
<path fill="#04823A" opacity="1.000000" stroke="none" 
	d="
M345.692139,314.110016 
	C349.910370,313.654480 351.066071,315.386749 350.972961,319.030579 
	C350.676453,330.637573 352.293304,328.909515 341.334961,328.988251 
	C329.863251,329.070679 318.388031,328.871521 306.919647,329.083252 
	C303.138763,329.153046 301.563782,328.315308 301.711639,324.144318 
	C302.126801,312.431366 300.267914,314.223083 311.807434,314.128906 
	C322.946442,314.037994 334.086792,314.109467 345.692139,314.110016 
z"/>
<path fill="#05833B" opacity="1.000000" stroke="none" 
	d="
M109.672470,175.457031 
	C103.197311,167.661896 95.657669,162.374985 85.733208,160.918427 
	C81.482773,160.294601 78.713737,158.013504 78.847061,153.298721 
	C78.966560,149.073090 82.315712,145.436890 86.575645,144.901413 
	C92.519234,144.154251 97.308937,147.004730 100.292427,151.404160 
	C104.802567,158.054794 108.285660,165.413071 112.038300,172.558273 
	C112.952209,174.298386 113.206154,176.373123 109.672470,175.457031 
z"/>
<path fill="#09843E" opacity="1.000000" stroke="none" 
	d="
M176.841843,178.168304 
	C179.081421,179.822479 182.361328,181.421585 182.426437,183.142349 
	C182.511108,185.379395 180.488434,189.153488 178.588959,189.743713 
	C172.063889,191.771301 165.213272,192.796036 158.441132,193.930878 
	C157.523361,194.084671 155.777328,192.882004 155.459839,191.951050 
	C155.182175,191.136841 156.084747,189.311569 156.965973,188.808044 
	C163.390549,185.136993 169.941544,181.687073 176.841843,178.168304 
z"/>
<path fill="#09843E" opacity="1.000000" stroke="none" 
	d="
M176.662796,133.247833 
	C170.071091,131.823303 163.819366,130.591736 157.844620,129.414734 
	C162.409744,124.211761 176.603867,119.984383 183.250946,122.185799 
	C187.920563,123.732315 190.154114,128.250839 188.272095,132.343704 
	C186.287811,136.658951 183.693100,136.911545 176.662796,133.247833 
z"/>
<path fill="#08843D" opacity="1.000000" stroke="none" 
	d="
M131.645966,79.140091 
	C131.329575,75.772888 130.378082,72.607071 131.148163,69.937943 
	C131.797745,67.686462 134.303650,64.690277 136.252075,64.480804 
	C137.947021,64.298576 141.622314,67.551735 141.624222,69.289818 
	C141.631088,75.650520 140.763199,82.066711 139.604782,88.347656 
	C139.131973,90.911247 136.515091,91.056610 135.258606,88.709656 
	C133.729065,85.852661 132.893005,82.624405 131.645966,79.140091 
z"/>
<path fill="#0B853F" opacity="1.000000" stroke="none" 
	d="
M128.887451,85.112900 
	C129.784882,86.519806 130.711670,87.562820 131.103912,88.778336 
	C131.852661,91.098679 130.975357,92.608498 128.446213,91.521011 
	C124.374290,89.770157 120.233749,87.972786 116.617775,85.477028 
	C115.314568,84.577545 115.440552,81.607368 114.914337,79.582146 
	C116.984924,79.208145 119.521194,77.905113 121.026169,78.659500 
	C123.887482,80.093750 126.158981,82.704659 128.887451,85.112900 
z"/>
<path fill="#0B853F" opacity="1.000000" stroke="none" 
	d="
M145.613434,187.771820 
	C143.917099,184.116394 144.625137,181.520416 148.547394,181.076050 
	C149.795181,180.934662 151.979294,182.184860 152.390686,183.295990 
	C152.890411,184.645660 152.452362,187.508621 151.552917,187.950043 
	C150.020752,188.701981 147.811951,188.075165 145.613434,187.771820 
z"/>
<path fill="#0B853F" opacity="1.000000" stroke="none" 
	d="
M138.531342,194.876450 
	C140.621552,195.848389 142.900223,196.584457 143.857742,198.135895 
	C144.322403,198.888763 142.662064,201.815903 141.309250,202.546127 
	C140.285110,203.098923 136.898254,201.803299 136.865479,201.204285 
	C136.753540,199.158249 137.658951,197.056549 138.531342,194.876450 
z"/>
<path fill="#0B853F" opacity="1.000000" stroke="none" 
	d="
M135.605103,99.809433 
	C135.000107,97.957542 134.740402,96.224304 134.480698,94.491074 
	C135.714890,94.313950 137.185287,93.648453 138.116058,94.098656 
	C139.025558,94.538559 140.135040,96.736885 139.848953,97.083305 
	C138.856476,98.285126 137.295258,99.017265 135.605103,99.809433 
z"/>
<path fill="#FBFDFC" opacity="1.000000" stroke="none" 
	d="
M469.094788,278.384521 
	C468.971069,284.621552 467.153687,286.694489 461.618347,287.004639 
	C458.506897,287.178986 455.377625,287.036011 451.979218,287.036011 
	C451.979218,282.313110 451.979218,277.915924 451.974152,273.516235 
	C461.225708,271.517914 465.802368,272.716064 469.094788,278.384521 
z"/>
<path fill="#F6FAF8" opacity="1.000000" stroke="none" 
	d="
M263.601990,385.366455 
	C264.964508,389.661072 266.179230,393.586700 267.548859,398.012878 
	C263.227264,398.012878 259.257324,398.012878 254.790543,398.012878 
	C256.876953,391.532684 258.904266,385.235931 261.337494,377.678589 
	C262.296875,380.995789 262.875549,382.996613 263.601990,385.366455 
z"/>
<path fill="#F6FAF8" opacity="1.000000" stroke="none" 
	d="
M251.786377,128.777588 
	C255.991989,128.970047 259.731873,129.944000 259.646423,134.341873 
	C259.606842,136.378952 257.150574,138.526093 255.435379,140.275757 
	C254.935684,140.785477 252.613144,140.526505 252.150558,139.883209 
	C249.770187,136.573059 247.723343,133.023102 245.065079,128.763748 
	C247.812881,128.763748 249.580338,128.763748 251.786377,128.777588 
z"/>
<path fill="#FBFDFC" opacity="1.000000" stroke="none" 
	d="
M315.067688,286.390106 
	C314.701508,278.343567 317.678680,273.437988 323.479889,272.014435 
	C329.536072,270.528320 335.483917,273.687927 337.524323,279.475159 
	C339.598236,285.357391 337.032745,291.686707 331.542084,294.234039 
	C325.991364,296.809204 319.510406,294.833282 316.320038,289.542328 
	C315.809814,288.696228 315.523285,287.715271 315.067688,286.390106 
z"/>
<path fill="#F6FAF8" opacity="1.000000" stroke="none" 
	d="
M291.274414,212.514084 
	C290.380280,209.514618 289.924316,206.567703 289.373779,203.009674 
	C292.478424,203.009674 295.090363,202.419403 297.214935,203.183762 
	C299.150970,203.880325 300.558228,206.046478 302.198578,207.564911 
	C300.670715,209.150101 299.393860,211.231995 297.538696,212.169647 
	C295.938507,212.978394 293.680023,212.484589 291.274414,212.514084 
z"/>
</svg>