<svg xmlns="http://www.w3.org/2000/svg" xmlns:xlink="http://www.w3.org/1999/xlink" width="500" zoomAndPan="magnify" viewBox="0 0 375 374.999991" height="500" preserveAspectRatio="xMidYMid meet" version="1.0"><defs><g/><clipPath id="95679a38c9"><path d="M 37.734375 130 L 134 130 L 134 271 L 37.734375 271 Z M 37.734375 130 " clip-rule="nonzero"/></clipPath><clipPath id="95b0c64bec"><path d="M 75 276 L 134 276 L 134 289.496094 L 75 289.496094 Z M 75 276 " clip-rule="nonzero"/></clipPath><clipPath id="291ab9d4dc"><path d="M 93 110 L 113 110 L 113 202.5 L 93 202.5 Z M 93 110 " clip-rule="nonzero"/></clipPath><clipPath id="14c33265fa"><path d="M 110 106 L 138.640625 106 L 138.640625 119 L 110 119 Z M 110 106 " clip-rule="nonzero"/></clipPath><clipPath id="a078ad8f37"><path d="M 109 106 L 138.640625 106 L 138.640625 120 L 109 120 Z M 109 106 " clip-rule="nonzero"/></clipPath><clipPath id="b219ae0f09"><path d="M 61.390625 151 L 96 151 L 96 178 L 61.390625 178 Z M 61.390625 151 " clip-rule="nonzero"/></clipPath></defs><g clip-path="url(#95679a38c9)"><path fill="#ffffff" d="M 42.828125 132.03125 C 46.910156 129.789062 52.515625 131.144531 55.089844 135.03125 C 56.574219 137.035156 56.828125 139.59375 56.8125 142.003906 C 56.78125 154.980469 56.78125 167.953125 56.789062 180.917969 C 56.757812 188.589844 59.925781 196.207031 65.460938 201.539062 C 72.628906 208.648438 79.925781 215.636719 87.039062 222.804688 C 88.128906 223.859375 89.175781 224.976562 90.492188 225.761719 C 92.199219 226.632812 94.589844 225.476562 94.851562 223.542969 C 95.304688 221.8125 93.890625 220.519531 92.828125 219.40625 C 86.308594 212.960938 79.71875 206.589844 73.242188 200.105469 C 69.929688 196.929688 68.699219 191.917969 70.023438 187.546875 C 71.613281 181.738281 77.773438 177.765625 83.730469 178.589844 C 87.585938 178.90625 90.613281 181.546875 93.230469 184.144531 C 102.066406 192.5 110.96875 200.78125 119.835938 209.101562 C 127.945312 216.6875 132.945312 227.589844 133 238.71875 C 133.035156 249.289062 133 259.859375 133.007812 270.433594 C 113.953125 270.441406 94.898438 270.433594 75.84375 270.433594 C 75.503906 265.347656 76.574219 259.988281 75.296875 255.066406 C 65.171875 241.976562 54.792969 229.0625 44.601562 216.027344 C 40.726562 211.007812 38.675781 204.851562 37.734375 198.648438 L 37.734375 138.367188 C 38.789062 135.84375 40.265625 133.269531 42.828125 132.03125 Z M 42.828125 132.03125 " fill-opacity="1" fill-rule="nonzero"/></g><g clip-path="url(#95b0c64bec)"><path fill="#ffffff" d="M 75.851562 276.773438 C 94.90625 276.769531 113.953125 276.773438 133 276.773438 C 132.507812 280.953125 134.40625 285.992188 131.339844 289.453125 L 77.34375 289.453125 C 74.660156 285.777344 76.230469 280.980469 75.851562 276.773438 Z M 75.851562 276.773438 " fill-opacity="1" fill-rule="nonzero"/></g><path fill="#ffffff" d="M 101.578125 110.679688 C 101.578125 110.867188 101.542969 111.042969 101.472656 111.214844 C 101.398438 111.386719 101.300781 111.539062 101.167969 111.667969 C 101.035156 111.800781 100.886719 111.898438 100.714844 111.96875 C 100.542969 112.042969 100.367188 112.078125 100.179688 112.078125 C 99.996094 112.078125 99.816406 112.042969 99.644531 111.96875 C 99.472656 111.898438 99.324219 111.800781 99.191406 111.667969 C 99.0625 111.539062 98.960938 111.386719 98.890625 111.214844 C 98.816406 111.042969 98.78125 110.867188 98.78125 110.679688 C 98.78125 110.496094 98.816406 110.316406 98.890625 110.148438 C 98.960938 109.976562 99.0625 109.824219 99.191406 109.695312 C 99.324219 109.5625 99.472656 109.460938 99.644531 109.390625 C 99.816406 109.320312 99.996094 109.285156 100.179688 109.285156 C 100.367188 109.285156 100.542969 109.320312 100.714844 109.390625 C 100.886719 109.460938 101.035156 109.5625 101.167969 109.695312 C 101.300781 109.824219 101.398438 109.976562 101.472656 110.148438 C 101.542969 110.316406 101.578125 110.496094 101.578125 110.679688 Z M 101.578125 110.679688 " fill-opacity="1" fill-rule="nonzero"/><path fill="#ffffff" d="M 100.179688 112.34375 C 99.980469 112.34375 99.847656 112.34375 99.648438 112.277344 C 99.25 112.144531 98.914062 111.878906 98.714844 111.480469 C 98.515625 111.078125 98.515625 110.613281 98.648438 110.214844 C 98.914062 109.351562 99.847656 108.886719 100.710938 109.21875 C 101.578125 109.484375 102.042969 110.414062 101.710938 111.28125 C 101.445312 111.878906 100.84375 112.34375 100.179688 112.34375 Z M 100.179688 109.550781 C 99.714844 109.550781 99.25 109.882812 99.117188 110.347656 C 99.050781 110.613281 99.050781 110.945312 99.183594 111.210938 C 99.316406 111.480469 99.582031 111.679688 99.847656 111.8125 C 100.445312 112.011719 101.113281 111.679688 101.246094 111.078125 C 101.445312 110.480469 101.113281 109.816406 100.511719 109.683594 C 100.378906 109.617188 100.246094 109.550781 100.179688 109.550781 Z M 100.179688 109.550781 " fill-opacity="1" fill-rule="nonzero"/><path fill="#ffffff" d="M 103.574219 161.394531 C 103.574219 161.632812 103.527344 161.859375 103.4375 162.082031 C 103.34375 162.300781 103.214844 162.496094 103.046875 162.664062 C 102.878906 162.832031 102.683594 162.960938 102.464844 163.050781 C 102.246094 163.144531 102.015625 163.1875 101.777344 163.1875 C 101.539062 163.1875 101.308594 163.144531 101.089844 163.050781 C 100.871094 162.960938 100.675781 162.832031 100.507812 162.664062 C 100.339844 162.496094 100.207031 162.300781 100.117188 162.082031 C 100.027344 161.859375 99.980469 161.632812 99.980469 161.394531 C 99.980469 161.15625 100.027344 160.925781 100.117188 160.707031 C 100.207031 160.488281 100.339844 160.292969 100.507812 160.125 C 100.675781 159.957031 100.871094 159.828125 101.089844 159.734375 C 101.308594 159.644531 101.539062 159.597656 101.777344 159.597656 C 102.015625 159.597656 102.246094 159.644531 102.464844 159.734375 C 102.683594 159.828125 102.878906 159.957031 103.046875 160.125 C 103.214844 160.292969 103.34375 160.488281 103.4375 160.707031 C 103.527344 160.925781 103.574219 161.15625 103.574219 161.394531 Z M 103.574219 161.394531 " fill-opacity="1" fill-rule="nonzero"/><path fill="#ffffff" d="M 101.777344 163.453125 C 101.644531 163.453125 101.511719 163.453125 101.378906 163.386719 C 100.84375 163.253906 100.378906 162.988281 100.046875 162.523438 C 99.714844 162.058594 99.582031 161.527344 99.714844 160.929688 C 99.914062 159.800781 100.976562 159 102.175781 159.265625 C 102.707031 159.398438 103.175781 159.664062 103.507812 160.132812 C 103.839844 160.597656 103.972656 161.128906 103.839844 161.726562 C 103.707031 162.722656 102.773438 163.453125 101.777344 163.453125 Z M 101.777344 159.933594 C 101.046875 159.933594 100.445312 160.464844 100.378906 161.128906 C 100.3125 161.527344 100.378906 161.925781 100.578125 162.191406 C 100.777344 162.523438 101.113281 162.722656 101.511719 162.789062 C 102.308594 162.921875 103.042969 162.390625 103.175781 161.59375 C 103.242188 161.195312 103.175781 160.796875 102.976562 160.53125 C 102.773438 160.265625 102.441406 160 102.042969 159.933594 C 101.976562 159.933594 101.910156 159.933594 101.777344 159.933594 Z M 101.777344 159.933594 " fill-opacity="1" fill-rule="nonzero"/><path fill="#ffffff" d="M 107.964844 154.546875 C 107.964844 154.785156 107.917969 155.015625 107.828125 155.234375 C 107.738281 155.453125 107.605469 155.648438 107.4375 155.816406 C 107.269531 155.984375 107.074219 156.113281 106.855469 156.207031 C 106.636719 156.296875 106.40625 156.34375 106.167969 156.34375 C 105.929688 156.34375 105.699219 156.296875 105.480469 156.207031 C 105.261719 156.113281 105.066406 155.984375 104.898438 155.816406 C 104.730469 155.648438 104.601562 155.453125 104.507812 155.234375 C 104.417969 155.015625 104.371094 154.785156 104.371094 154.546875 C 104.371094 154.308594 104.417969 154.082031 104.507812 153.863281 C 104.601562 153.640625 104.730469 153.449219 104.898438 153.277344 C 105.066406 153.109375 105.261719 152.980469 105.480469 152.890625 C 105.699219 152.800781 105.929688 152.753906 106.167969 152.753906 C 106.40625 152.753906 106.636719 152.800781 106.855469 152.890625 C 107.074219 152.980469 107.269531 153.109375 107.4375 153.277344 C 107.605469 153.449219 107.738281 153.640625 107.828125 153.863281 C 107.917969 154.082031 107.964844 154.308594 107.964844 154.546875 Z M 107.964844 154.546875 " fill-opacity="1" fill-rule="nonzero"/><path fill="#ffffff" d="M 106.167969 156.675781 C 106.035156 156.675781 105.902344 156.675781 105.769531 156.609375 C 105.238281 156.476562 104.769531 156.210938 104.4375 155.746094 C 104.105469 155.277344 103.972656 154.746094 104.105469 154.148438 C 104.304688 153.019531 105.371094 152.222656 106.566406 152.488281 C 107.101562 152.621094 107.566406 152.886719 107.898438 153.351562 C 108.230469 153.816406 108.363281 154.347656 108.230469 154.945312 C 108.097656 155.945312 107.167969 156.675781 106.167969 156.675781 Z M 106.167969 153.085938 C 105.4375 153.085938 104.835938 153.617188 104.769531 154.28125 C 104.703125 154.679688 104.769531 155.078125 104.972656 155.347656 C 105.171875 155.679688 105.503906 155.878906 105.902344 155.945312 C 106.699219 156.078125 107.433594 155.546875 107.566406 154.746094 C 107.632812 154.347656 107.566406 153.949219 107.367188 153.683594 C 107.167969 153.417969 106.832031 153.152344 106.433594 153.085938 C 106.367188 153.085938 106.300781 153.085938 106.167969 153.085938 Z M 106.167969 153.085938 " fill-opacity="1" fill-rule="nonzero"/><g clip-path="url(#291ab9d4dc)"><path fill="#ffffff" d="M 96.1875 202.46875 C 95.457031 202.46875 94.855469 201.871094 94.855469 201.140625 C 94.855469 192.964844 94.523438 185.320312 94.257812 177.945312 C 93.128906 150.492188 92.261719 128.894531 109.894531 111.28125 C 110.425781 110.746094 111.226562 110.746094 111.757812 111.28125 C 112.289062 111.8125 112.289062 112.609375 111.757812 113.140625 C 94.988281 129.890625 95.789062 149.960938 96.917969 177.8125 C 97.253906 185.1875 97.519531 192.832031 97.519531 201.140625 C 97.519531 201.871094 96.917969 202.46875 96.1875 202.46875 Z M 96.1875 202.46875 " fill-opacity="1" fill-rule="nonzero"/></g><path fill="#ffffff" d="M 130.253906 137 C 128.792969 136.070312 109.429688 124.171875 96.1875 142.453125 L 96.320312 142.453125 L 96.253906 142.453125 C 114.550781 155.613281 129.191406 138.464844 130.253906 137 L 130.320312 137 C 130.320312 136.933594 130.320312 137 130.253906 137 C 130.320312 137 130.320312 137 130.320312 137 Z M 130.253906 137 " fill-opacity="1" fill-rule="nonzero"/><path fill="#ffffff" d="M 110.292969 148.035156 C 105.4375 148.035156 100.578125 146.304688 95.921875 142.984375 C 95.789062 142.917969 95.722656 142.851562 95.65625 142.71875 C 95.523438 142.519531 95.523438 142.1875 95.65625 141.984375 C 100.644531 135.140625 107.035156 131.617188 114.617188 131.617188 C 122.335938 131.617188 128.792969 135.273438 130.386719 136.269531 C 130.386719 136.269531 130.386719 136.269531 130.453125 136.269531 C 130.789062 136.335938 130.988281 136.601562 130.988281 136.933594 C 130.988281 137.199219 130.855469 137.398438 130.585938 137.53125 C 129.390625 139.0625 121.605469 148.035156 110.292969 148.035156 Z M 97.121094 142.253906 C 101.445312 145.242188 105.835938 146.773438 110.292969 146.773438 C 120.273438 146.773438 127.460938 139.328125 129.257812 137.199219 C 127.195312 136.003906 121.40625 133.011719 114.617188 133.011719 C 107.699219 132.945312 101.777344 136.070312 97.121094 142.253906 Z M 97.121094 142.253906 " fill-opacity="1" fill-rule="nonzero"/><g clip-path="url(#14c33265fa)"><path fill="#ffffff" d="M 137.972656 113.007812 C 136.976562 112.078125 123.535156 99.847656 110.359375 112.210938 L 110.492188 112.210938 L 110.425781 112.210938 C 122.871094 125.371094 136.976562 114.070312 137.972656 113.007812 C 138.039062 113.007812 138.039062 113.074219 137.972656 113.007812 C 138.039062 113.007812 138.039062 113.007812 137.972656 113.007812 Z M 137.972656 113.007812 " fill-opacity="1" fill-rule="nonzero"/></g><g clip-path="url(#a078ad8f37)"><path fill="#ffffff" d="M 123.867188 119.054688 C 118.808594 119.054688 114.152344 116.929688 110.160156 112.675781 C 110.027344 112.609375 109.960938 112.542969 109.894531 112.410156 C 109.828125 112.210938 109.894531 112.011719 110.027344 111.8125 C 114.019531 108.023438 118.410156 106.160156 123.136719 106.160156 C 130.921875 106.160156 137.109375 111.414062 138.238281 112.476562 C 138.4375 112.542969 138.640625 112.742188 138.640625 113.007812 C 138.640625 113.273438 138.503906 113.472656 138.238281 113.539062 C 137.242188 114.402344 131.386719 119.054688 123.867188 119.054688 Z M 111.160156 112.277344 C 114.953125 116.132812 119.210938 118.058594 123.867188 118.058594 C 130.453125 118.058594 135.710938 114.269531 137.175781 113.074219 C 135.511719 111.613281 129.921875 107.292969 123.136719 107.292969 C 118.878906 107.292969 114.816406 108.953125 111.160156 112.277344 Z M 111.160156 112.277344 " fill-opacity="1" fill-rule="nonzero"/></g><path fill="#ffffff" d="M 117.082031 84.824219 C 115.949219 85.625 101.246094 96.257812 110.691406 111.679688 L 110.691406 111.613281 L 110.691406 111.679688 C 126.128906 102.105469 117.878906 86.089844 117.082031 84.824219 C 117.148438 84.757812 117.148438 84.757812 117.082031 84.824219 C 117.082031 84.757812 117.148438 84.757812 117.082031 84.824219 Z M 117.082031 84.824219 " fill-opacity="1" fill-rule="nonzero"/><path fill="#ffffff" d="M 110.691406 112.210938 C 110.492188 112.210938 110.359375 112.144531 110.226562 111.945312 C 106.234375 105.429688 105.96875 98.71875 109.429688 92.46875 C 111.957031 88.015625 115.617188 85.160156 116.613281 84.425781 C 116.613281 84.359375 116.679688 84.359375 116.679688 84.359375 C 116.746094 84.292969 116.8125 84.226562 116.882812 84.226562 C 116.882812 84.226562 116.882812 84.160156 116.882812 84.160156 C 116.949219 84.160156 116.949219 84.09375 117.015625 84.09375 C 117.082031 84.09375 117.148438 84.160156 117.148438 84.160156 L 117.148438 84.09375 C 117.148438 84.09375 117.148438 84.027344 117.148438 84.027344 C 117.148438 84.027344 117.148438 84.09375 117.148438 84.09375 C 117.214844 84.09375 117.28125 84.160156 117.347656 84.226562 C 117.347656 84.226562 117.414062 84.292969 117.414062 84.292969 C 117.480469 84.359375 117.546875 84.425781 117.546875 84.492188 C 117.546875 84.558594 117.546875 84.558594 117.546875 84.625 C 118.210938 85.824219 121.671875 92.667969 119.941406 100.113281 C 118.945312 105.03125 115.949219 108.953125 111.09375 112.011719 C 111.027344 112.144531 110.894531 112.210938 110.757812 112.210938 C 110.757812 112.210938 110.757812 112.210938 110.691406 112.210938 Z M 116.949219 85.625 C 114.085938 87.75 102.976562 97.386719 110.894531 110.945312 C 115.285156 108.089844 118.078125 104.433594 119.078125 99.980469 C 120.539062 93.398438 117.8125 87.351562 116.949219 85.625 Z M 116.949219 85.625 " fill-opacity="1" fill-rule="nonzero"/><path fill="#ffffff" d="M 70.570312 109.882812 C 70.96875 111.546875 76.492188 133.546875 98.78125 129.757812 L 98.648438 129.691406 L 98.714844 129.757812 C 94.855469 107.425781 72.367188 109.550781 70.570312 109.882812 C 70.503906 109.816406 70.503906 109.816406 70.570312 109.882812 C 70.503906 109.882812 70.503906 109.816406 70.570312 109.882812 Z M 70.570312 109.882812 " fill-opacity="1" fill-rule="nonzero"/><path fill="#ffffff" d="M 93.726562 130.621094 C 75.828125 130.621094 70.636719 113.007812 69.90625 110.148438 C 69.839844 110.015625 69.773438 109.949219 69.773438 109.75 C 69.773438 109.683594 69.773438 109.683594 69.773438 109.617188 C 69.773438 109.550781 69.839844 109.484375 69.839844 109.417969 C 69.90625 109.351562 69.90625 109.351562 69.972656 109.285156 C 70.039062 109.285156 70.039062 109.21875 70.105469 109.21875 C 70.171875 109.21875 70.238281 109.152344 70.304688 109.152344 C 70.371094 109.152344 70.503906 109.152344 70.570312 109.152344 C 71.101562 109.085938 72.234375 108.953125 73.699219 108.953125 C 80.285156 108.953125 95.988281 110.945312 99.25 129.425781 C 99.316406 129.558594 99.316406 129.691406 99.316406 129.824219 C 99.25 130.089844 99.050781 130.222656 98.78125 130.222656 C 97.121094 130.554688 95.390625 130.621094 93.726562 130.621094 Z M 71.371094 110.347656 C 72.433594 114.203125 77.691406 129.292969 93.726562 129.292969 C 95.058594 129.292969 96.519531 129.292969 97.917969 129.09375 C 94.589844 112.078125 79.953125 110.214844 73.765625 110.214844 C 72.765625 110.214844 71.902344 110.28125 71.371094 110.347656 Z M 71.371094 110.347656 " fill-opacity="1" fill-rule="nonzero"/><path fill="#ffffff" d="M 62.253906 152.820312 C 62.71875 154.746094 69.171875 180.402344 95.125 175.949219 L 94.988281 175.882812 L 95.058594 175.949219 C 90.53125 149.960938 64.382812 152.355469 62.253906 152.820312 L 62.1875 152.753906 C 62.1875 152.753906 62.1875 152.753906 62.253906 152.820312 C 62.1875 152.820312 62.1875 152.753906 62.1875 152.753906 Z M 62.253906 152.820312 " fill-opacity="1" fill-rule="nonzero"/><g clip-path="url(#b219ae0f09)"><path fill="#ffffff" d="M 89.269531 177.144531 C 68.441406 177.144531 62.453125 156.609375 61.589844 153.21875 C 61.523438 153.152344 61.523438 153.085938 61.523438 153.019531 C 61.390625 152.886719 61.390625 152.820312 61.390625 152.6875 C 61.390625 152.621094 61.390625 152.554688 61.457031 152.488281 C 61.457031 152.421875 61.523438 152.355469 61.589844 152.289062 C 61.65625 152.222656 61.65625 152.089844 61.722656 152.023438 C 61.789062 151.957031 61.855469 151.890625 61.855469 151.890625 C 61.921875 151.890625 61.988281 151.890625 62.054688 151.890625 C 62.1875 151.890625 62.253906 151.890625 62.386719 151.957031 C 62.984375 151.890625 64.316406 151.757812 66.046875 151.757812 C 73.699219 151.757812 91.929688 154.082031 95.789062 175.484375 C 95.855469 175.617188 95.921875 175.882812 95.855469 176.015625 C 95.789062 176.347656 95.523438 176.546875 95.257812 176.613281 C 93.195312 177.011719 91.132812 177.144531 89.269531 177.144531 Z M 63.183594 153.550781 C 64.449219 158.070312 70.503906 175.816406 89.203125 175.816406 C 90.796875 175.816406 92.394531 175.617188 94.125 175.351562 C 90.265625 155.546875 73.230469 153.417969 65.980469 153.417969 C 64.78125 153.417969 63.851562 153.484375 63.183594 153.550781 Z M 63.183594 153.550781 " fill-opacity="1" fill-rule="nonzero"/></g><path fill="#ffffff" d="M 128.925781 164.117188 C 128.457031 166.046875 122.003906 191.703125 96.054688 187.25 L 96.1875 187.183594 L 96.121094 187.25 C 100.644531 161.261719 126.863281 163.652344 128.925781 164.117188 L 128.992188 164.050781 C 129.058594 164.050781 128.992188 164.050781 128.925781 164.117188 C 128.992188 164.117188 128.992188 164.050781 128.992188 164.050781 Z M 128.925781 164.117188 " fill-opacity="1" fill-rule="nonzero"/><path fill="#ffffff" d="M 101.976562 188.511719 C 100.046875 188.511719 98.050781 188.3125 95.988281 187.980469 C 95.65625 187.914062 95.457031 187.714844 95.390625 187.382812 C 95.324219 187.183594 95.390625 186.984375 95.457031 186.851562 C 99.316406 165.449219 117.546875 163.121094 125.199219 163.121094 C 126.929688 163.121094 128.257812 163.253906 128.859375 163.320312 C 128.992188 163.253906 129.191406 163.320312 129.324219 163.320312 C 129.589844 163.453125 129.789062 163.652344 129.789062 163.917969 C 129.789062 164.050781 129.789062 164.1875 129.722656 164.320312 C 129.722656 164.386719 129.65625 164.453125 129.65625 164.519531 C 128.792969 167.90625 122.734375 188.511719 101.976562 188.511719 Z M 97.054688 186.585938 C 98.714844 186.851562 100.378906 186.984375 101.976562 186.984375 C 120.671875 186.984375 126.726562 169.304688 127.992188 164.785156 C 127.328125 164.71875 126.394531 164.652344 125.199219 164.652344 C 117.945312 164.652344 100.910156 166.777344 97.054688 186.585938 Z M 97.054688 186.585938 " fill-opacity="1" fill-rule="nonzero"/><path fill="#ffffff" d="M 101.710938 98.785156 C 101.777344 97.453125 101.378906 95.726562 100.046875 95.726562 C 98.714844 95.726562 98.25 97.453125 98.316406 98.785156 C 98.449219 101.109375 98.980469 103.503906 99.914062 105.695312 L 100.511719 106.492188 C 101.179688 103.902344 101.578125 101.375 101.710938 98.785156 Z M 101.710938 98.785156 " fill-opacity="1" fill-rule="nonzero"/><path fill="#ffffff" d="M 102.90625 98.71875 C 102.90625 97.386719 102.574219 95.460938 101.113281 94.730469 C 99.78125 94.066406 98.316406 94.863281 97.652344 96.125 C 96.71875 97.917969 97.253906 100.3125 97.652344 102.171875 C 98.050781 104.035156 98.515625 105.761719 99.714844 107.226562 C 100.246094 107.890625 101.445312 107.492188 101.644531 106.691406 C 102.308594 104.101562 102.707031 101.441406 102.90625 98.71875 C 102.976562 97.253906 100.644531 97.253906 100.578125 98.785156 C 100.445312 101.242188 100.046875 103.703125 99.515625 106.160156 C 100.179688 105.960938 100.84375 105.828125 101.445312 105.628906 C 100.578125 104.5 100.246094 102.972656 99.980469 101.640625 C 99.78125 100.710938 99.316406 99.25 99.582031 98.320312 C 99.449219 97.585938 99.78125 97.320312 100.511719 97.585938 C 100.578125 97.984375 100.644531 98.121094 100.644531 98.785156 C 100.511719 100.046875 102.90625 100.046875 102.90625 98.71875 Z M 102.90625 98.71875 " fill-opacity="1" fill-rule="nonzero"/><path fill="#ffffff" d="M 91.265625 104.964844 C 90.398438 104.433594 89.46875 103.503906 89.933594 102.640625 C 90.464844 101.773438 91.796875 102.238281 92.660156 102.839844 C 94.125 103.902344 95.390625 105.230469 96.453125 106.691406 L 96.71875 107.425781 C 94.789062 106.757812 92.992188 105.960938 91.265625 104.964844 Z M 91.265625 104.964844 " fill-opacity="1" fill-rule="nonzero"/><path fill="#ffffff" d="M 91.730469 104.234375 C 91.398438 104.035156 90.929688 103.835938 91.0625 103.371094 C 91.199219 102.839844 91.597656 103.238281 91.929688 103.4375 C 92.59375 103.835938 93.195312 104.433594 93.792969 104.964844 C 94.589844 105.761719 95.523438 106.625 95.855469 107.691406 C 96.253906 107.292969 96.585938 106.960938 96.984375 106.558594 C 95.125 105.960938 93.394531 105.164062 91.730469 104.234375 C 90.730469 103.636719 89.800781 105.230469 90.796875 105.761719 C 92.59375 106.757812 94.457031 107.625 96.453125 108.289062 C 97.121094 108.488281 97.785156 107.824219 97.585938 107.160156 C 97.1875 106.027344 96.519531 105.164062 95.65625 104.300781 C 94.589844 103.171875 93.261719 101.839844 91.796875 101.375 C 90.664062 101.042969 89.46875 101.375 89.066406 102.574219 C 88.601562 103.96875 89.800781 105.097656 90.863281 105.761719 C 91.796875 106.359375 92.660156 104.832031 91.730469 104.234375 Z M 91.730469 104.234375 " fill-opacity="1" fill-rule="nonzero"/><path fill="#ffffff" d="M 117.8125 153.019531 C 119.078125 152.355469 121.007812 152.023438 121.671875 153.285156 C 122.269531 154.613281 120.738281 155.878906 119.34375 156.410156 C 116.882812 157.339844 114.285156 157.804688 111.691406 157.9375 L 110.625 157.671875 C 112.890625 155.8125 115.285156 154.28125 117.8125 153.019531 Z M 117.8125 153.019531 " fill-opacity="1" fill-rule="nonzero"/><path fill="#ffffff" d="M 118.476562 154.148438 C 119.34375 153.75 121.339844 153.683594 119.675781 154.746094 C 118.742188 155.414062 117.414062 155.679688 116.347656 155.945312 C 114.617188 156.34375 112.6875 156.808594 110.960938 156.34375 C 111.160156 157.074219 111.359375 157.804688 111.558594 158.46875 C 113.6875 156.808594 116.015625 155.347656 118.476562 154.148438 C 119.941406 153.417969 118.675781 151.160156 117.148438 151.957031 C 114.484375 153.351562 112.023438 154.945312 109.695312 156.742188 C 108.894531 157.339844 109.429688 158.667969 110.292969 158.867188 C 112.15625 159.332031 114.019531 159.066406 115.949219 158.667969 C 118.078125 158.269531 120.808594 157.671875 122.269531 155.945312 C 123.269531 154.746094 123.46875 153.019531 122.136719 151.890625 C 120.738281 150.625 118.675781 151.226562 117.148438 151.957031 C 115.683594 152.554688 116.949219 154.8125 118.476562 154.148438 Z M 118.476562 154.148438 " fill-opacity="1" fill-rule="nonzero"/><path fill="#ffffff" d="M 87.339844 149.296875 C 86.871094 148.566406 82.015625 142.453125 74.628906 141.585938 C 67.242188 140.722656 77.425781 123.839844 87.273438 148.898438 " fill-opacity="1" fill-rule="nonzero"/><path fill="#ffffff" d="M 88.070312 148.832031 C 86.207031 145.972656 83.011719 143.648438 79.953125 142.253906 C 78.820312 141.71875 77.625 141.320312 76.359375 141.054688 C 75.628906 140.855469 74.5625 140.921875 73.898438 140.523438 C 73.164062 140.125 72.898438 139.460938 72.964844 138.664062 C 73.230469 136.535156 75.5625 135.671875 77.359375 136.335938 C 82.148438 138.066406 84.808594 144.910156 86.472656 149.164062 C 86.871094 150.160156 88.46875 149.695312 88.070312 148.699219 C 86.140625 143.914062 83.414062 136.933594 78.089844 134.875 C 75.761719 133.945312 73.097656 134.609375 71.835938 136.867188 C 70.835938 138.730469 71.167969 141.121094 73.230469 142.121094 C 74.296875 142.585938 75.496094 142.585938 76.625 142.851562 C 78.355469 143.316406 79.953125 144.046875 81.417969 144.976562 C 83.28125 146.171875 85.34375 147.835938 86.605469 149.695312 C 87.207031 150.625 88.667969 149.761719 88.070312 148.832031 Z M 88.070312 148.832031 " fill-opacity="1" fill-rule="nonzero"/><path fill="#ffffff" d="M 110.894531 127.03125 C 111.558594 126.832031 117.347656 125.835938 122.003906 129.027344 C 126.660156 132.214844 129.390625 117.527344 111.160156 126.832031 " fill-opacity="1" fill-rule="nonzero"/><path fill="#ffffff" d="M 111.09375 127.628906 C 113.289062 127.03125 115.949219 127.296875 118.078125 127.894531 C 119.808594 128.359375 121.40625 130.023438 123.203125 130.15625 C 124.800781 130.289062 125.929688 128.824219 126.128906 127.296875 C 126.328125 125.371094 125 123.839844 123.203125 123.308594 C 119.144531 122.113281 114.417969 124.507812 110.960938 126.300781 C 110.226562 126.699219 110.894531 127.761719 111.625 127.429688 C 114.683594 125.902344 119.144531 123.574219 122.804688 124.574219 C 124.265625 124.972656 125.398438 126.234375 124.800781 127.828125 C 123.933594 130.089844 121.871094 128.09375 120.605469 127.496094 C 117.746094 126.167969 113.953125 125.636719 110.824219 126.5 C 109.960938 126.632812 110.292969 127.828125 111.09375 127.628906 Z M 111.09375 127.628906 " fill-opacity="1" fill-rule="nonzero"/><g fill="#ffffff" fill-opacity="1"><g transform="translate(142.069229, 154.695479)"><g><path d="M 14.519531 -33.320312 L 3.949219 -33.320312 C 3.332031 -33.320312 2.953125 -32.894531 2.953125 -32.464844 L 2.953125 -27.085938 C 3.523438 -26.085938 4.285156 -24.992188 4.855469 -23.992188 C 5.710938 -22.707031 6.472656 -21.421875 7.332031 -20.136719 L 3.949219 -20.136719 C 3.332031 -20.136719 2.953125 -19.707031 2.953125 -19.277344 L 2.953125 -0.808594 C 2.953125 -0.429688 3.332031 0 3.949219 0 L 9.234375 0 C 9.804688 0 10.234375 -0.429688 10.234375 -0.808594 L 10.234375 -13.1875 L 14.519531 -13.1875 C 14.519531 -13.1875 26.039062 -13.1875 26.039062 -23.277344 C 26.039062 -33.320312 14.519531 -33.320312 14.519531 -33.320312 Z M 11.328125 -26.371094 L 14.519531 -26.371094 C 15.375 -26.371094 18.753906 -26.371094 18.753906 -23.277344 C 18.753906 -21.230469 16.660156 -20.375 15.234375 -20.183594 Z M 11.328125 -26.371094 "/></g></g></g><g fill="#ffffff" fill-opacity="1"><g transform="translate(169.820909, 154.695479)"><g><path d="M 11.710938 -26.847656 L 14.234375 -26.847656 C 14.851562 -26.847656 15.234375 -27.277344 15.234375 -27.65625 L 15.234375 -32.464844 C 15.234375 -32.894531 14.851562 -33.320312 14.234375 -33.320312 L 1.855469 -33.320312 C 1.285156 -33.320312 0.855469 -32.894531 0.855469 -32.464844 L 0.855469 -27.65625 C 0.855469 -27.277344 1.285156 -26.847656 1.855469 -26.847656 L 4.425781 -26.847656 L 4.425781 -6.472656 L 1.667969 -6.472656 C 1.09375 -6.472656 0.667969 -6.046875 0.667969 -5.664062 L 0.667969 -0.808594 C 0.667969 -0.429688 1.09375 0 1.667969 0 L 14.421875 0 C 14.996094 0 15.421875 -0.429688 15.421875 -0.808594 L 15.421875 -5.664062 C 15.421875 -6.046875 14.996094 -6.472656 14.421875 -6.472656 L 11.710938 -6.472656 Z M 11.710938 -26.847656 "/></g></g></g><g fill="#ffffff" fill-opacity="1"><g transform="translate(186.481446, 154.695479)"><g><path d="M 18.804688 -6.472656 C 13.566406 -6.472656 9.28125 -10.378906 9.28125 -16.660156 C 9.28125 -22.515625 12.851562 -26.847656 18.804688 -26.847656 C 21.421875 -26.847656 23.800781 -25.753906 25.609375 -23.945312 C 25.945312 -23.660156 26.515625 -23.660156 26.894531 -23.945312 L 30.609375 -27.609375 C 30.894531 -27.894531 30.894531 -28.5625 30.703125 -28.894531 C 27.703125 -31.796875 23.371094 -33.796875 18.804688 -33.796875 C 8.949219 -33.796875 1.902344 -26.703125 1.902344 -16.660156 C 1.902344 -6.1875 9.472656 0.476562 18.804688 0.476562 C 23.371094 0.476562 27.703125 -1.523438 30.703125 -4.378906 C 30.941406 -4.617188 30.847656 -5.285156 30.703125 -5.617188 L 27.085938 -9.234375 C 26.609375 -9.617188 25.945312 -9.664062 25.609375 -9.378906 C 23.800781 -7.570312 21.421875 -6.472656 18.804688 -6.472656 Z M 18.804688 -6.472656 "/></g></g></g><g fill="#ffffff" fill-opacity="1"><g transform="translate(219.516897, 154.695479)"><g><path d="M 16.992188 -16.375 L 29.65625 -31.988281 C 30.226562 -32.609375 29.75 -33.320312 28.894531 -33.320312 L 22.277344 -33.320312 C 22.085938 -33.320312 21.5625 -33.082031 21.46875 -32.988281 C 17.753906 -28.417969 13.996094 -23.847656 10.28125 -19.230469 L 10.28125 -32.464844 C 10.28125 -32.894531 9.855469 -33.320312 9.28125 -33.320312 L 4 -33.320312 C 3.378906 -33.320312 2.953125 -32.894531 2.953125 -32.464844 L 2.953125 -0.808594 C 2.953125 -0.429688 3.378906 0 4 0 L 9.28125 0 C 9.855469 0 10.28125 -0.429688 10.28125 -0.808594 L 10.28125 -9.28125 C 10.851562 -9.855469 11.28125 -10.425781 11.804688 -10.996094 L 11.804688 -10.949219 L 12.234375 -11.472656 L 21.230469 -0.332031 C 21.324219 -0.238281 21.847656 0 22.039062 0 L 28.988281 0 C 29.847656 0 30.324219 -0.714844 29.75 -1.332031 Z M 16.992188 -16.375 "/></g></g></g><g fill="#ffffff" fill-opacity="1"><g transform="translate(143.926826, 183.450192)"><g><path d="M 11.636719 0.351562 C 16.921875 0.351562 20.976562 -2.714844 20.976562 -7.96875 L 20.976562 -23.585938 C 20.976562 -23.90625 20.660156 -24.222656 20.273438 -24.222656 L 16.394531 -24.222656 C 15.972656 -24.222656 15.65625 -23.90625 15.65625 -23.585938 L 15.65625 -7.96875 C 15.65625 -5.78125 13.644531 -4.722656 11.636719 -4.722656 C 9.660156 -4.722656 7.898438 -5.957031 7.582031 -8.039062 L 7.582031 -23.585938 C 7.582031 -23.90625 7.261719 -24.222656 6.839844 -24.222656 L 2.996094 -24.222656 C 2.574219 -24.222656 2.257812 -23.90625 2.257812 -23.585938 L 2.257812 -7.96875 C 2.257812 -2.855469 6.453125 0.351562 11.636719 0.351562 Z M 11.636719 0.351562 "/></g></g></g><g fill="#ffffff" fill-opacity="1"><g transform="translate(168.002539, 183.450192)"><g><path d="M 10.648438 -24.398438 L 2.960938 -24.398438 C 2.539062 -24.398438 2.257812 -24.117188 2.257812 -23.796875 L 2.257812 -0.527344 C 2.257812 -0.246094 2.539062 0.0703125 2.960938 0.0703125 L 6.804688 0.0703125 C 7.296875 0.0703125 7.546875 -0.246094 7.546875 -0.527344 L 7.546875 -9.519531 L 10.648438 -9.519531 C 11.246094 -9.519531 19.074219 -9.589844 19.074219 -16.921875 C 19.074219 -24.257812 11.636719 -24.398438 10.648438 -24.398438 Z M 10.648438 -14.5625 L 7.546875 -14.5625 L 7.546875 -19.355469 L 10.648438 -19.355469 C 11.140625 -19.355469 13.785156 -19.214844 13.785156 -16.921875 C 13.785156 -14.632812 11.175781 -14.5625 10.648438 -14.5625 Z M 10.648438 -14.5625 "/></g></g></g><g fill="#ffffff" fill-opacity="1"><g transform="translate(145.571788, 227.222183)"><g><path d="M 31.242188 -35.332031 L 24.378906 -35.332031 C 24.175781 -35.332031 23.722656 -35.179688 23.519531 -34.980469 L 15.847656 -24.277344 C 13.175781 -28.011719 10.75 -31.242188 8.125 -34.980469 C 7.925781 -35.230469 7.46875 -35.332031 7.21875 -35.332031 L 0.402344 -35.332031 C -0.503906 -35.332031 -0.960938 -34.523438 -0.402344 -33.917969 L -0.453125 -33.917969 C 1.363281 -31.394531 3.332031 -28.570312 5.148438 -26.046875 C 7.371094 -22.863281 9.742188 -19.683594 11.960938 -16.503906 L 11.960938 -0.859375 C 11.960938 -0.453125 12.417969 0 13.023438 0 L 18.625 0 C 19.28125 0 19.683594 -0.453125 19.683594 -0.859375 L 19.683594 -16.503906 L 32.101562 -33.917969 L 32.050781 -33.917969 C 32.605469 -34.523438 32.152344 -35.332031 31.242188 -35.332031 Z M 31.242188 -35.332031 "/></g></g></g><g fill="#ffffff" fill-opacity="1"><g transform="translate(178.126702, 227.222183)"><g><path d="M 15.597656 -9.289062 C 23.015625 -9.289062 29.125 -15.140625 29.125 -22.460938 C 29.125 -29.730469 23.015625 -35.734375 15.597656 -35.734375 C 8.125 -35.734375 2.019531 -29.730469 2.019531 -22.460938 C 2.019531 -15.140625 8.125 -9.289062 15.597656 -9.289062 Z M 15.597656 -28.417969 C 18.828125 -28.417969 21.402344 -25.792969 21.402344 -22.460938 C 21.402344 -19.078125 18.828125 -16.605469 15.597656 -16.605469 C 12.367188 -16.605469 9.742188 -19.078125 9.742188 -22.460938 C 9.742188 -25.792969 12.367188 -28.417969 15.597656 -28.417969 Z M 27.609375 -0.859375 L 27.609375 -6.410156 C 27.609375 -6.863281 27.15625 -7.320312 26.5 -7.320312 L 4.390625 -7.320312 C 3.734375 -7.320312 3.332031 -6.863281 3.332031 -6.410156 L 3.332031 -0.859375 C 3.332031 -0.453125 3.734375 0 4.390625 0 L 26.5 0 C 27.15625 0 27.609375 -0.453125 27.609375 -0.859375 Z M 27.609375 -0.859375 "/></g></g></g><g fill="#ffffff" fill-opacity="1"><g transform="translate(210.328303, 227.222183)"><g><path d="M 16.65625 0.503906 C 24.226562 0.503906 30.03125 -3.886719 30.03125 -11.40625 L 30.03125 -33.769531 C 30.03125 -34.222656 29.578125 -34.675781 29.023438 -34.675781 L 23.472656 -34.675781 C 22.863281 -34.675781 22.410156 -34.222656 22.410156 -33.769531 L 22.410156 -11.40625 C 22.410156 -8.277344 19.535156 -6.761719 16.65625 -6.761719 C 13.832031 -6.761719 11.304688 -8.53125 10.851562 -11.507812 L 10.851562 -33.769531 C 10.851562 -34.222656 10.398438 -34.675781 9.792969 -34.675781 L 4.289062 -34.675781 C 3.683594 -34.675781 3.230469 -34.222656 3.230469 -33.769531 L 3.230469 -11.40625 C 3.230469 -4.089844 9.238281 0.503906 16.65625 0.503906 Z M 16.65625 0.503906 "/></g></g></g><g fill="#ffffff" fill-opacity="1"><g transform="translate(244.801179, 227.222183)"><g><path d="M 13.375 -13.980469 L 19.535156 -0.554688 C 19.636719 -0.304688 20.191406 0 20.492188 0 L 26.550781 0 C 27.359375 0 27.710938 -0.605469 27.457031 -1.210938 L 24.378906 -7.925781 C 23.320312 -10.144531 22.160156 -12.71875 21.097656 -14.992188 C 24.53125 -16.355469 27.257812 -19.128906 27.257812 -24.378906 C 27.257812 -34.828125 17.210938 -34.929688 15.140625 -34.929688 L 4.1875 -34.929688 C 3.582031 -34.929688 3.179688 -34.523438 3.179688 -34.070312 L 3.179688 -0.859375 C 3.179688 -0.453125 3.582031 0 4.1875 0 L 9.691406 0 C 10.347656 0 10.800781 -0.453125 10.800781 -0.859375 L 10.800781 -13.980469 Z M 10.800781 -20.695312 L 10.800781 -27.8125 L 15.140625 -27.8125 C 16.050781 -27.8125 19.636719 -27.457031 19.636719 -24.226562 C 19.636719 -20.945312 16.40625 -20.695312 15.140625 -20.695312 Z M 10.800781 -20.695312 "/></g></g></g><g fill="#ffffff" fill-opacity="1"><g transform="translate(148.478844, 269.990944)"><g><path d="M 21.046875 -4.453125 L 22.550781 -0.613281 L 22.550781 -0.667969 C 22.660156 -0.277344 23.164062 0 23.609375 0 L 30.234375 0 C 31.070312 0 31.515625 -0.667969 31.238281 -1.335938 L 16.648438 -39.03125 C 16.257812 -39.867188 14.867188 -39.867188 14.476562 -39.03125 L -0.113281 -1.335938 C -0.390625 -0.667969 0 0 0.945312 0 L 7.515625 0 C 8.019531 0 8.519531 -0.277344 8.628906 -0.667969 L 8.628906 -0.613281 L 10.023438 -4.453125 Z M 12.25 -11.136719 L 14.199219 -16.925781 C 14.753906 -18.597656 15.199219 -20.210938 15.589844 -22.273438 C 15.925781 -20.324219 16.371094 -18.765625 16.925781 -16.925781 L 18.820312 -11.136719 Z M 12.25 -11.136719 "/></g></g></g><g fill="#ffffff" fill-opacity="1"><g transform="translate(180.269762, 269.990944)"><g><path d="M 21.714844 -7.460938 C 15.757812 -7.460938 10.859375 -11.859375 10.859375 -19.097656 C 10.859375 -25.835938 14.921875 -31.179688 21.714844 -31.179688 C 24.722656 -31.179688 27.449219 -29.898438 29.566406 -27.839844 C 29.957031 -27.507812 30.625 -27.507812 31.070312 -27.839844 L 35.300781 -32.070312 C 35.636719 -32.40625 35.636719 -33.128906 35.414062 -33.519531 C 31.960938 -36.859375 27.003906 -39.085938 21.714844 -39.085938 C 10.355469 -39.085938 2.339844 -30.625 2.339844 -19.097656 C 2.339844 -7.128906 11.082031 0.558594 21.714844 0.558594 C 27.058594 0.558594 31.847656 -1.613281 35.300781 -4.957031 C 35.691406 -5.34375 35.691406 -6.125 35.300781 -6.457031 L 31.070312 -10.746094 C 30.625 -11.082031 29.957031 -11.082031 29.566406 -10.746094 C 27.449219 -8.6875 24.722656 -7.460938 21.714844 -7.460938 Z M 21.714844 -7.460938 "/></g></g></g><g fill="#ffffff" fill-opacity="1"><g transform="translate(218.908813, 269.990944)"><g><path d="M 23.886719 -31.683594 L 23.886719 -37.25 C 23.886719 -37.75 23.441406 -38.253906 22.71875 -38.253906 L 1.449219 -38.253906 C 0.78125 -38.253906 0.277344 -37.75 0.277344 -37.25 L 0.277344 -31.683594 C 0.277344 -31.179688 0.78125 -30.792969 1.449219 -30.792969 L 7.960938 -30.792969 L 7.960938 -0.945312 C 7.960938 -0.5 8.296875 0 9.074219 0 L 15.144531 0 C 15.867188 0 16.257812 -0.5 16.257812 -0.945312 L 16.257812 -30.792969 L 22.71875 -30.792969 C 23.441406 -30.792969 23.886719 -31.179688 23.886719 -31.683594 Z M 23.886719 -31.683594 "/></g></g></g></svg>